# xmcd
#
# Track frame offsets: 
#        150
#        17423
#        32930
#        52732
#        71803
#        91466
#        110571
#        123039
#        139692
#
# Disc length: 2172 seconds
#
# Revision: 0
# Processed by: cddbd v1.5.2PL0 Copyright (c) Steve Scherf et al.
# Submitted via: ExactAudioCopy v0.99pb3
#
DISCID=71087a09
DTITLE=Turnpike Troubadours - Bossier City
DYEAR=1900
DGENRE=Country
TTITLE0=Come November
TTITLE1=Bossier City
TTITLE2=Solid Ground
TTITLE3=Easton and Main
TTITLE4=The Shape
TTITLE5=Austin to Ashes
TTITLE6=Angola
TTITLE7=Rollin On
TTITLE8=Three Rivers Song
EXTD=
EXTT0=
EXTT1=
EXTT2=
EXTT3=
EXTT4=
EXTT5=
EXTT6=
EXTT7=
EXTT8=
PLAYORDER=
